<?xml version="1.0" encoding="UTF-8" standalone="no"?>
<svg
   xmlns:dc="http://purl.org/dc/elements/1.1/"
   xmlns:cc="http://creativecommons.org/ns#"
   xmlns:rdf="http://www.w3.org/1999/02/22-rdf-syntax-ns#"
   xmlns:svg="http://www.w3.org/2000/svg"
   xmlns="http://www.w3.org/2000/svg"
   id="svg8"
   version="1.1"
   viewBox="0 0 207.69792 207.69792"
   height="785"
   width="785">
  <defs
     id="defs2" />
  <metadata
     id="metadata5">
    <rdf:RDF>
      <cc:Work
         rdf:about="">
        <dc:format>image/svg+xml</dc:format>
        <dc:type
           rdf:resource="http://purl.org/dc/dcmitype/StillImage" />
        <dc:title></dc:title>
      </cc:Work>
    </rdf:RDF>
  </metadata>
  <g
     transform="translate(-3.3197227,-42.903626)"
     id="layer1">
    <g
       transform="translate(430.89286,60.47619)"
       id="g49">
      <g
         transform="translate(3.6002254,-0.51989283)"
         id="g57">
        <path
           style="fill:#415e7a;stroke-width:0.08466667"
           d="m -405.38172,189.90559 c -0.76098,-0.27917 -1.28128,-0.72163 -1.84403,-1.56812 -0.51185,-0.76994 -0.85605,-1.74089 -0.95451,-2.69258 -0.0843,-0.81449 0.002,-1.71312 0.20273,-2.10039 0.17057,-0.32983 0.72693,-0.81184 1.16119,-1.00601 0.20237,-0.0905 11.16591,-6.80131 24.36342,-14.91296 l 23.99548,-14.74846 1.36219,-1.19542 c 0.74921,-0.65747 1.41798,-1.24618 1.48617,-1.30824 0.1589,-0.14463 0.0613,-0.24767 -0.60286,-0.63669 -0.26339,-0.15426 -0.86551,-0.52357 -1.33806,-0.82067 -0.71446,-0.4492 -0.85484,-0.57191 -0.83345,-0.72852 0.0171,-0.12512 0.81551,-0.87901 2.37875,-2.24606 1.43222,-1.25248 2.32254,-2.0882 2.27513,-2.13561 -0.0804,-0.0804 -4.09692,-0.73516 -4.53625,-0.73951 -0.1976,-0.002 -2.79054,1.90534 -13.01627,9.57441 -8.31856,6.23874 -12.81421,9.55972 -12.89774,9.52766 -0.0705,-0.0271 -0.12823,-0.11649 -0.12823,-0.19874 0,-0.0822 0.38593,-1.50266 0.85761,-3.15649 0.88064,-3.08768 1.08038,-3.59337 1.73883,-4.40235 0.13194,-0.1621 4.14718,-4.63885 8.92275,-9.94834 l 8.68285,-9.6536 0.28266,-1.36814 c 0.15546,-0.75248 0.2588,-1.43033 0.22963,-1.50632 -0.0292,-0.076 -0.46098,-0.32868 -0.9596,-0.56151 -2.68012,-1.2515 -5.19078,-1.98604 -6.97006,-2.03923 -0.34925,-0.0104 -0.67904,-0.0513 -0.73286,-0.0908 -0.0538,-0.0395 -0.77773,-0.12844 -1.60867,-0.19763 -0.83094,-0.0692 -1.59832,-0.16277 -1.70529,-0.20792 -0.10696,-0.0452 -0.29717,-0.0821 -0.42267,-0.0821 -0.38994,0 -12.1015,-3.38326 -12.5765,-3.63312 -1.26297,-0.66437 -1.91037,-1.31468 -2.97167,-2.98511 -0.27609,-0.43456 -0.68412,-1.0672 -0.90672,-1.40589 -0.22261,-0.33867 -0.44067,-0.74593 -0.48459,-0.90499 -0.0439,-0.15907 -0.17882,-0.41896 -0.29978,-0.57754 -0.12095,-0.15859 -0.21992,-0.33601 -0.21992,-0.39428 0,-0.0583 -0.0576,-0.20707 -0.12802,-0.33067 -0.0704,-0.12361 -0.23823,-0.52954 -0.37292,-0.90207 -0.13469,-0.37253 -0.31373,-0.85787 -0.39788,-1.07852 -0.0967,-0.2537 -0.12305,-0.42866 -0.0716,-0.47586 0.0473,-0.0433 4.19883,0.18422 9.90226,0.54279 5.40147,0.33959 9.83694,0.60135 9.85661,0.58168 0.0197,-0.0197 0.0152,-0.0563 -0.01,-0.0815 -0.0251,-0.0251 -2.70802,-0.88533 -5.96195,-1.91154 l -5.91622,-1.86582 -7.32367,-3.17712 c -7.29144,-3.16314 -9.89892,-4.36248 -11.43,-5.25734 -6.40544,-3.74373 -10.92326,-9.505929 -14.35361,-18.307122 -2.31376,-5.936378 -4.2937,-13.412131 -6.77199,-25.569333 -0.35598,-1.74625 -0.7585,-3.542902 -0.89449,-3.992567 -0.15329,-0.506899 -0.24724,-1.008008 -0.24724,-1.318743 0,-0.830326 -0.11237,-0.785021 3.6485,-1.471151 1.78556,-0.325763 3.26191,-0.607729 3.28078,-0.626601 0.0189,-0.01886 0.0117,-0.0931 -0.0158,-0.164956 -0.0376,-0.09787 -0.17888,-0.130649 -0.56321,-0.130649 -1.25623,0 -2.59572,-1.238953 -3.51106,-3.247525 -1.95188,-4.283135 -2.45771,-12.746845 -1.22418,-20.483468 0.22813,-1.430849 0.33075,-1.621519 0.94084,-1.748175 0.24771,-0.05142 0.79316,-0.0985 1.21211,-0.104607 l 0.76171,-0.01111 2.61073,0.950993 c 1.4359,0.523047 2.63605,0.924378 2.667,0.891845 0.031,-0.03253 -0.0144,-0.102306 -0.1008,-0.155052 -0.9366,-0.57184 -2.33058,-1.803227 -3.15885,-2.790392 -2.34866,-2.799243 -4.07273,-6.826701 -4.84528,-11.31869 -0.38897,-2.261683 -0.46925,-3.316435 -0.47037,-6.179822 -10e-4,-2.7766179 0.0532,-3.613255 0.3779,-5.8185219 0.97042,-6.5917268 3.69716,-12.8980743 7.59147,-17.5574061 0.38086,-0.455672 0.88116,-1.108136 1.1118,-1.449921 0.63396,-0.939489 0.61317,-0.93367 1.09073,-0.305333 0.22385,0.294534 0.61656,0.745065 0.87267,1.001182 0.25612,0.256117 1.05622,1.246058 1.778,2.199869 2.85304,3.7701868 5.35113,6.7853353 6.7529,8.150631 l 0.76063,0.7408333 0.5824,-0.00128 c 0.52966,-0.00116 1.12473,-0.131826 1.27227,-0.2793662 0.0319,-0.031914 0.14317,-0.058025 0.24724,-0.058025 0.11288,0 0.28652,-0.118132 0.43039,-0.2927934 0.36984,-0.4489975 6.7751,-6.1418697 6.91045,-6.1418697 0.0985,0 0.12872,0.449242 0.175,2.6034998 0.21247,9.89108 2.15805,20.2920302 5.95097,31.8135002 3.27822,9.958025 7.93638,20.124518 13.39318,29.230752 11.97867,19.989868 27.81254,35.86016 46.83657,46.944331 1.78586,1.040513 2.6636,1.506583 2.83731,1.506583 0.17766,0 1.26267,-0.57431 3.00469,-1.590437 16.27724,-9.494537 30.23952,-22.563472 41.67366,-39.007229 5.84535,-8.406376 11.30558,-18.592873 15.36093,-28.657085 4.9373,-12.252921 8.02913,-24.7956362 8.88112,-36.0282485 0.0964,-1.2703133 0.22642,-5.4733817 0.21026,-6.7944995 -8.5e-4,-0.05821 0.0528,-0.105834 0.11899,-0.105834 0.14019,0 6.25819,5.4080521 6.82238,6.0306866 0.30914,0.3411711 0.49277,0.4584276 0.97366,0.6217082 0.35297,0.1198456 0.79436,0.2021179 1.09137,0.2034192 l 0.49869,0.00218 0.84407,-0.8255 c 1.49361,-1.4607455 3.89662,-4.3540798 6.83687,-8.231897 0.72179,-0.95194 1.47653,-1.883129 1.67721,-2.069308 0.20067,-0.186179 0.55671,-0.597285 0.79118,-0.913568 0.23447,-0.316284 0.47869,-0.575061 0.54272,-0.575061 0.064,0 0.31077,0.288055 0.54835,0.640123 0.23757,0.352066 0.74808,1.018183 1.13447,1.480259 1.96175,2.346046 3.77859,5.3337499 5.0434,8.2936187 1.49961,3.5093258 2.42452,7.1613996 2.89475,11.43 0.16931,1.5370141 0.14124,6.3531593 -0.0459,7.8731543 -0.60562,4.919083 -1.85613,8.682015 -3.92547,11.812169 -1.2113,1.832253 -2.16853,2.850818 -3.76265,4.00376 -0.36689,0.265356 -0.63335,0.493707 -0.59213,0.507447 0.0412,0.01374 1.19427,-0.38308 2.56234,-0.881823 2.39318,-0.872459 2.51305,-0.906737 3.16473,-0.904957 1.14149,0.0031 1.64961,0.09716 1.90502,0.352574 0.19671,0.196705 0.24895,0.374073 0.41274,1.401394 0.80258,5.033757 0.89721,10.587842 0.25689,15.079283 -0.30213,2.119266 -0.84105,4.187004 -1.43812,5.517744 -0.33813,0.753635 -1.1003,1.90522 -1.55062,2.342887 -0.58807,0.571534 -1.28464,0.902369 -1.89993,0.902369 -0.50061,0 -0.70853,0.101642 -0.54416,0.266014 0.0451,0.04506 1.43048,0.326763 3.07872,0.626 3.57671,0.64936 3.34204,0.596231 3.54928,0.80347 0.25788,0.257878 0.22622,1.088483 -0.0801,2.101283 -0.13598,0.449664 -0.5385,2.246316 -0.89448,3.992566 -3.75707,18.430249 -6.66962,27.387059 -11.1031,34.144789 -2.50893,3.824257 -4.95795,6.356729 -8.32216,8.605779 -2.44187,1.63243 -3.7274,2.25293 -13.04567,6.29687 l -7.32367,3.17832 -5.54567,1.74635 c -3.05011,0.96049 -5.73218,1.80665 -5.96016,1.88035 -0.27166,0.0878 -0.37378,0.15481 -0.29633,0.19437 0.065,0.0332 4.48061,-0.21472 9.81249,-0.55093 5.33189,-0.33622 9.72291,-0.59464 9.75784,-0.57427 0.0349,0.0204 0.0637,0.10146 0.064,0.1802 8.5e-4,0.27231 -1.0255,2.80091 -1.28684,3.17034 -0.0907,0.12825 -0.19833,0.34952 -0.23911,0.49171 -0.0408,0.1422 -0.5429,0.98885 -1.11582,1.88147 -0.75395,1.17464 -1.21708,1.79948 -1.67668,2.2621 -1.0865,1.09366 -1.12701,1.10924 -7.90224,3.03866 -3.26742,0.93048 -6.15031,1.73152 -6.40643,1.78009 -0.25612,0.0485 -1.12175,0.14428 -1.92362,0.21271 -0.80188,0.0684 -1.5328,0.16446 -1.62427,0.21341 -0.0915,0.049 -0.42599,0.0891 -0.74338,0.0893 -1.61391,8.4e-4 -4.27863,0.78807 -7.00834,2.07069 -0.83031,0.39013 -0.97719,0.48845 -0.97796,0.65456 -8.5e-4,0.10751 0.12222,0.78602 0.27272,1.50781 l 0.27361,1.31233 8.92108,9.906 c 4.90658,5.4483 8.94259,9.96315 8.96891,10.033 0.0263,0.0699 0.17228,0.33655 0.3244,0.59267 0.39783,0.66985 2.07662,6.57879 1.90009,6.68789 -0.0661,0.0408 -0.16007,0.0501 -0.20887,0.0206 -0.0488,-0.0295 -5.79404,-4.33231 -12.76724,-9.56175 -9.76706,-7.32464 -12.73207,-9.5075 -12.91167,-9.50561 -0.43688,0.005 -4.44441,0.66131 -4.52456,0.74145 -0.05,0.05 0.79221,0.84418 2.25396,2.1254 1.88171,1.64929 2.33381,2.08635 2.33381,2.25618 0,0.16474 -0.10607,0.27685 -0.48684,0.51454 -0.26775,0.16716 -0.73448,0.4665 -1.03716,0.66521 -0.30269,0.19872 -0.73131,0.46313 -0.9525,0.58761 -0.22119,0.12446 -0.39908,0.27232 -0.3953,0.32857 0.004,0.0562 0.64195,0.65662 1.41816,1.33419 l 1.4113,1.23192 24.17234,14.84335 c 13.29478,8.16384 24.38055,14.98181 24.63504,15.15107 0.56894,0.37839 0.80971,0.72416 0.94012,1.35012 0.27869,1.3378 -0.21616,3.13198 -1.23919,4.49292 -0.52447,0.6977 -0.88819,0.95287 -1.76462,1.23797 -0.57855,0.18819 -0.81051,0.22353 -1.2085,0.1841 -0.84579,-0.0838 -1.3851,-0.21165 -1.70657,-0.40459 -0.60578,-0.36359 -33.83624,-17.43246 -33.9383,-17.43246 -0.0571,0 -0.29179,0.11081 -0.52148,0.24624 -0.90571,0.53403 -2.92357,1.55539 -4.3484,2.20098 -6.62031,2.9997 -13.88493,4.91881 -22.1231,5.8443 -3.96695,0.44566 -4.57434,0.46592 -13.97,0.46607 -9.39683,0 -9.99902,-0.02 -13.97,-0.46607 -10.19232,-1.14502 -19.08777,-3.86679 -26.67,-8.16028 l -0.254,-0.14383 -16.78356,8.63538 c -9.23095,4.74947 -16.89804,8.71691 -17.03797,8.81655 -0.31377,0.22343 -0.91178,0.34533 -1.90781,0.38892 -0.66828,0.0292 -0.83907,0.005 -1.38866,-0.19657 z"
           id="path53" />
        <path
           style="fill:#15293d;stroke-width:0.08466667"
           d="m -405.22072,189.80355 c -0.66632,-0.2297 -0.76383,-0.29457 -1.31543,-0.87512 -0.98806,-1.03992 -1.56324,-2.46312 -1.56324,-3.86804 0,-1.2783 0.37549,-1.91465 1.43933,-2.43921 0.25612,-0.12628 11.24797,-6.85709 24.42634,-14.95735 l 23.96066,-14.72773 1.43707,-1.26861 c 0.79038,-0.69774 1.51428,-1.37582 1.60866,-1.50685 0.0944,-0.13102 5.98186,-5.34944 13.08327,-11.59648 7.10142,-6.24704 13.07859,-11.52727 13.2826,-11.73384 0.36336,-0.36792 0.36999,-0.38472 0.32482,-0.82238 -0.0661,-0.6403 -0.42245,-1.27583 -1.07627,-1.91935 -0.58552,-0.57632 -1.37405,-1.03499 -1.95223,-1.13558 -0.25311,-0.044 -0.35371,-0.0103 -0.635,0.21324 -3.00092,2.38432 -25.89689,19.59701 -26.24216,19.72829 -0.11089,0.0422 -5.91877,4.36472 -12.90639,9.60568 -6.98763,5.24096 -12.72396,9.52902 -12.74741,9.52902 -0.1081,0 0.013,-0.49099 0.80198,-3.25243 0.55786,-1.95247 0.91828,-3.06734 1.06163,-3.28396 0.11937,-0.18038 0.25047,-0.41226 0.29134,-0.51529 0.0409,-0.10303 4.09307,-4.64992 9.00491,-10.10422 l 8.93062,-9.9169 0.30512,-1.45289 c 0.16781,-0.7991 0.30511,-1.58032 0.30511,-1.73604 0,-0.42514 2.94557,-14.33166 3.09809,-14.6266 0.16056,-0.31051 2.90608,-3.03301 3.05863,-3.03301 0.0732,0 0.10853,0.13127 0.10837,0.40217 -8.5e-4,0.81017 0.60189,14.70571 0.63913,14.74295 0.0212,0.0211 0.0597,0.0172 0.0856,-0.009 0.12912,-0.12911 2.8874,-10.26623 3.05525,-11.22851 0.15832,-0.90768 1.91485,-8.60619 2.11349,-9.26301 0.0631,-0.2085 0.19222,-0.18437 0.39533,0.0738 0.24358,0.30965 1.06541,0.6777 1.78415,0.799 1.58062,0.26677 4.29569,-0.26771 7.61942,-1.49995 2.74822,-1.01886 5.29514,-2.18364 10.27711,-4.69998 2.01278,-1.01663 3.72912,-1.84842 3.81409,-1.84842 0.29781,0 4.28838,-2.306398 7.30063,-4.219492 10.3855,-6.595864 20.05297,-14.997625 28.37039,-24.656009 10.09044,-11.717257 18.4469,-25.528786 24.43087,-40.379253 3.66515,-9.09585 6.40814,-18.639853 7.8118,-27.1805813 0.8203,-4.99116099 1.15237,-8.4721641 1.2499,-13.1021667 0.0307,-1.4552083 0.0717,-2.645833 0.0912,-2.645833 0.0871,0 6.12535,5.4027964 6.54744,5.8584064 0.60273,0.6505998 1.26872,0.9149266 2.30522,0.9149266 h 0.67365 l 0.76063,-0.7408333 c 1.40351,-1.3669857 3.91144,-4.3944007 6.75203,-8.1506307 0.72131,-0.953811 1.50605,-1.924703 1.74388,-2.157536 0.23783,-0.232833 0.61238,-0.662049 0.83232,-0.953814 0.21996,-0.291764 0.43595,-0.508213 0.47999,-0.480997 0.044,0.02722 0.27267,0.334911 0.50807,0.683769 0.23541,0.348858 0.73963,1.007109 1.12048,1.46278 4.33358,5.1848872 7.00251,11.8836208 7.86299,19.735262 0.16605,1.5151193 0.13895,5.857132 -0.046,7.365155 -0.71896,5.863444 -2.4128,10.32652 -5.16331,13.60469 -0.86253,1.027999 -1.67386,1.743347 -3.22855,2.846607 -0.22369,0.158736 -0.29,0.398215 -0.11027,0.398215 0.0573,0 1.31231,-0.43815 2.78903,-0.973667 2.57202,-0.932718 2.71303,-0.973667 3.35311,-0.973667 0.95039,0 1.60903,0.146714 1.77146,0.394595 0.16171,0.24681 0.47105,2.04877 0.69645,4.057041 0.65376,5.824819 0.32557,11.634449 -0.8964,15.868364 -0.88757,3.075263 -2.54294,5.079704 -4.19527,5.079933 -0.40538,5.9e-5 -0.49935,0.02901 -0.57935,0.178494 -0.0599,0.111988 -0.0657,0.208204 -0.0155,0.258411 0.044,0.04399 1.54295,0.345525 3.331,0.670069 3.00305,0.545075 3.26556,0.60645 3.44153,0.804647 0.25544,0.287697 0.24905,0.778188 -0.0211,1.620054 -0.11638,0.36267 -0.55535,2.316742 -0.97551,4.342392 -2.65708,12.810397 -4.57665,20.010933 -6.87288,25.781 -3.41588,8.583592 -7.89747,14.238239 -14.20736,17.926129 -1.53253,0.8957 -4.1408,2.09516 -11.43,5.25627 l -7.32366,3.17604 -5.29167,1.66668 c -2.91042,0.91667 -5.64409,1.77913 -6.07483,1.91659 -0.51379,0.16395 -0.78317,0.29222 -0.78317,0.37294 0,0.0712 0.0802,0.12286 0.1905,0.12264 0.10477,0 4.43865,-0.26682 9.63083,-0.59247 5.19219,-0.32566 9.60226,-0.59219 9.80017,-0.59229 0.24182,0 0.35983,0.0365 0.35983,0.11163 0,0.28964 -1.00787,2.76392 -1.2305,3.02084 -0.0605,0.0699 -0.18432,0.32321 -0.27508,0.56302 -0.0908,0.23981 -0.31688,0.65891 -0.50246,0.93133 -0.18559,0.27242 -0.56217,0.85087 -0.83686,1.28542 -1.06213,1.68031 -1.73712,2.35423 -2.9971,2.99235 -0.46194,0.23395 -12.19722,3.62588 -12.5447,3.62588 -0.0979,0 -0.31576,0.0385 -0.48414,0.0856 -0.16839,0.0471 -0.93481,0.14348 -1.70316,0.21425 -3.90023,0.35923 -5.08472,0.60369 -7.4451,1.53655 -1.1892,0.46999 -2.88423,1.27321 -2.88423,1.36674 0,0.0374 -0.42862,0.32369 -0.9525,0.63613 -1.82185,1.08657 -3.07021,2.28006 -3.00988,2.87758 0.0444,0.43983 0.30866,0.54778 1.80338,0.73664 2.31133,0.29204 2.9497,0.48991 4.00582,1.24159 1.04403,0.74309 1.27302,1.409 0.81951,2.38318 -0.35834,0.76974 -1.71726,2.01775 -2.66633,2.44869 -0.26661,0.12107 -4.59511,0.78076 -4.80082,0.73167 -0.16869,-0.0402 -4.86723,0.675 -5.00875,0.76247 -0.049,0.0303 -0.0682,0.10935 -0.0427,0.17575 0.0255,0.0664 1.05066,0.99948 2.27816,2.07352 2.60522,2.27951 2.49836,2.17856 2.44663,2.31127 -0.0379,0.0974 -1.03006,0.74566 -2.17552,1.42154 -0.28163,0.16619 -0.61105,0.40037 -0.73203,0.52042 -0.32809,0.32557 -2.82028,1.73166 -5.21529,2.94246 -5.15157,2.60437 -11.13265,4.93554 -16.51,6.43491 -0.51224,0.14282 -0.94404,0.29704 -0.95956,0.3427 -0.0155,0.0457 -0.16792,0.0839 -0.33866,0.085 -0.4123,0.003 -1.47636,0.27846 -1.51443,0.39266 -0.0634,0.19023 1.8419,0.75737 3.65931,1.08926 1.79152,0.32715 4.37617,0.64041 4.49185,0.54441 0.0939,-0.0779 0.8774,0.0217 1.06036,0.13479 0.42644,0.26355 -1.29861,1.53044 -3.68954,2.70963 -2.36145,1.16465 -4.49714,1.79281 -6.7945,1.99841 -0.61701,0.0552 -1.12183,0.13462 -1.12183,0.17646 0,0.10858 1.85234,0.97992 3.34433,1.57317 4.04148,1.607 8.93451,2.75285 14.01233,3.2814 0.8094,0.0842 2.39934,0.15034 4.14867,0.17246 1.55998,0.0197 2.88396,0.053 2.94217,0.074 0.17665,0.0636 0.12094,0.32915 -0.20633,0.98331 -1.21307,2.4248 -5.9174,4.72953 -12.76884,6.25567 -3.41979,0.76175 -8.08048,1.38516 -11.26067,1.50622 -3.09087,0.11766 -9.74628,0.0645 -11.72633,-0.0936 -9.7957,-0.78242 -18.10388,-2.7861 -25.55916,-6.16411 -1.41878,-0.64286 -3.43706,-1.6646 -4.34134,-2.19779 -0.22969,-0.13543 -0.50246,-0.24623 -0.60615,-0.24623 -0.1842,0 -33.49704,17.0831 -33.97784,17.42412 -0.25947,0.18403 -1.39816,0.44129 -1.94496,0.43941 -0.18162,-8.5e-4 -0.65407,-0.11277 -1.04988,-0.24922 z"
           id="path51" />
      </g>
    </g>
  </g>
</svg>
