<svg width="2374" height="479" viewBox="0 0 2374 479" fill="none" xmlns="http://www.w3.org/2000/svg">
<path d="M38.448 371.629C37.4084 371.239 37.1365 371.059 36.3884 370.259C35.3643 369.164 34.7316 368.103 34.2364 366.651C33.5787 364.724 33.5247 362.113 34.1182 360.946C34.4185 360.356 35.1831 359.708 36.1361 359.236C36.5416 359.035 55.4549 347.447 78.166 333.484L119.459 308.099L122.012 305.85C123.417 304.614 124.585 303.492 124.608 303.359C124.636 303.2 124.368 302.952 123.805 302.618C123.341 302.344 122.435 301.78 121.793 301.365C121.151 300.949 120.413 300.488 120.152 300.34C119.891 300.19 119.682 300.001 119.688 299.917C119.693 299.835 121.537 298.164 123.786 296.206C126.035 294.247 127.91 292.552 127.954 292.438C127.998 292.325 127.976 292.175 127.905 292.106C127.769 291.976 120.366 290.791 119.684 290.791C119.387 290.791 113.829 294.887 97.2049 307.357C83.9256 317.319 75.0678 323.87 74.9881 323.79C74.7646 323.567 77.7365 313.344 78.3021 312.39C78.5641 311.948 78.8154 311.489 78.8607 311.369C78.906 311.248 85.8617 303.466 94.3178 294.074L109.693 276.999L110.226 274.446C110.686 272.245 110.733 271.851 110.564 271.592C110.352 271.264 107.522 269.932 105.087 269.014C102.966 268.214 100.314 267.507 98.6668 267.304C97.9045 267.211 96.5912 267.039 95.7485 266.924C94.906 266.81 93.2973 266.641 92.1737 266.55C91.0502 266.46 90.0205 266.328 89.8851 266.257C89.75 266.185 89.4551 266.128 89.2298 266.128C88.5377 266.128 68.3685 260.303 67.5414 259.864C65.3598 258.707 64.3626 257.706 62.564 254.869C62.0882 254.118 61.3849 253.027 61.0014 252.443C60.6177 251.859 60.242 251.158 60.1662 250.883C60.0905 250.609 59.858 250.162 59.6496 249.888C59.4411 249.614 59.2706 249.297 59.2706 249.182C59.2706 249.066 59.1825 248.843 59.0746 248.685C58.9668 248.527 58.6944 247.872 58.4693 247.23C58.2443 246.588 57.9409 245.783 57.7951 245.442L57.53 244.821L58.145 244.82C58.4832 244.818 66.2353 245.285 75.3716 245.856C86.8267 246.572 92.0301 246.847 92.1341 246.744C92.2173 246.66 92.2519 246.505 92.2113 246.4C92.1694 246.29 87.5379 244.755 81.577 242.876L71.0167 239.545L57.8117 233.807C50.5489 230.65 44.1799 227.831 43.6583 227.543C43.1367 227.253 42.6114 226.98 42.4909 226.936C41.8015 226.678 39.8986 225.712 38.6973 225.008C25.5607 217.318 17.1307 204.86 10.6312 183.528C8.00221 174.901 5.44908 164.307 2.43647 149.525C1.823 146.515 1.12928 143.419 0.894956 142.643C0.389556 140.972 0.33876 139.911 0.746605 139.541C0.945478 139.362 2.64892 138.994 6.74494 138.248C10.5178 137.562 12.4902 137.143 12.5385 137.017C12.5787 136.912 12.5045 136.663 12.3734 136.462C12.1632 136.142 12.0318 136.099 11.2589 136.099C8.55303 136.099 6.01243 133.111 4.36501 127.99C1.84329 120.153 1.38562 107.796 3.18458 96.1208C3.38789 94.8013 3.6467 93.5428 3.75969 93.3242C4.0171 92.8264 4.90838 92.6095 6.69766 92.6095C7.93221 92.6095 8.0209 92.6351 12.5934 94.2998C15.1468 95.2293 17.3529 95.9673 17.496 95.9399C17.9812 95.8464 17.8603 95.4411 17.2182 95.0088C14.9376 93.4728 13.1998 91.9518 11.7465 90.2197C7.70563 85.403 4.73323 78.4554 3.40269 70.7176C2.73848 66.8548 2.5947 64.99 2.59276 60.2116C2.59093 55.5784 2.68817 54.1 3.24333 50.3284C4.91744 38.9544 9.61373 28.0977 16.3425 20.0456C17.0079 19.2494 17.8547 18.143 18.2244 17.5872C18.5939 17.0313 18.974 16.5765 19.069 16.5765C19.164 16.5765 19.4617 16.8884 19.7306 17.2697C19.9994 17.651 20.5851 18.3256 21.032 18.7689C21.479 19.2122 22.8625 20.9185 24.1063 22.5607C29.1024 29.1566 33.3215 34.2439 35.8161 36.6792L37.1988 38.0291L38.3493 38.0267C39.3865 38.0249 40.4224 37.8115 40.6887 37.5453C40.7436 37.4902 40.9363 37.4452 41.1167 37.4452C41.3257 37.4452 41.6645 37.1938 42.0506 36.7521C42.3836 36.3708 45.0978 33.8856 48.0816 31.2297L53.5072 26.4006L53.6049 30.4271C53.8041 38.6411 54.3799 44.6664 55.7797 53.1845C58.4828 69.6339 64.0796 88.364 71.3766 105.38C75.6679 115.386 81.4395 126.692 86.9664 135.916C108.038 171.085 136.558 199.371 169.913 218.174C172.746 219.772 172.642 219.757 174.364 218.829C176.289 217.793 179.48 215.923 182.637 213.985C203.258 201.321 222.055 184.79 238.116 165.192C253.825 146.022 266.914 123.797 276.479 100.054C282.753 84.4815 287.504 67.8953 289.946 53.0354C291.345 44.524 291.922 38.4913 292.095 30.6194C292.15 28.1015 292.25 26.2049 292.326 26.2049C292.529 26.2049 302.741 35.294 303.746 36.3679C304.289 36.95 304.737 37.3032 304.925 37.3004C305.092 37.2982 305.274 37.3412 305.329 37.3961C305.583 37.6505 306.608 37.8756 307.522 37.8777L308.527 37.88L309.91 36.53C312.41 34.0891 316.657 28.9664 321.619 22.4079C322.863 20.7638 324.217 19.0903 324.627 18.689C325.038 18.2877 325.683 17.5479 326.06 17.045C326.437 16.5421 326.809 16.169 326.885 16.2159C326.96 16.2628 327.354 16.7932 327.76 17.3945C328.166 17.9957 329.035 19.1304 329.691 19.9159C336.403 27.9469 341.101 38.8169 342.774 50.1791C343.334 53.9802 343.427 55.4223 343.426 60.208C343.423 65.1435 343.285 66.9618 342.615 70.8601C341.284 78.5979 338.311 85.5449 334.272 90.3622C332.825 92.0863 331.522 93.2322 328.847 95.1302C328.424 95.43 328.367 95.6707 328.717 95.6707C328.848 95.6707 330.966 94.9385 333.422 94.0434L337.889 92.416L339.201 92.4352C341.114 92.4631 342.001 92.6775 342.257 93.1728C342.493 93.6292 343.099 97.3965 343.422 100.414C343.973 105.575 344.069 112.845 343.647 117.415C342.579 128.976 339.341 135.894 334.84 136.237C334.104 136.293 333.79 136.382 333.676 136.565C333.573 136.729 333.568 136.866 333.661 136.959C333.739 137.037 336.322 137.56 339.4 138.121C343.383 138.848 345.075 139.215 345.272 139.393C345.696 139.776 345.638 141.081 345.122 142.786C344.889 143.56 344.194 146.658 343.581 149.668C339.31 170.621 335.898 183.508 331.91 193.74C326.006 208.891 318.304 218.729 307.32 225.149C304.682 226.692 300.188 228.759 287.622 234.212L275 239.688L264.591 242.971C258.866 244.777 254.143 246.294 254.095 246.342C253.728 246.708 255.429 246.638 271.284 245.641C280.63 245.052 288.337 244.622 288.407 244.684C288.479 244.748 288.366 245.226 288.146 245.772C287.932 246.308 287.618 247.149 287.449 247.642C287.28 248.136 287.052 248.668 286.944 248.827C286.835 248.985 286.746 249.209 286.746 249.324C286.746 249.44 286.576 249.757 286.368 250.03C286.159 250.303 285.926 250.752 285.85 251.026C285.775 251.299 285.378 252.035 284.969 252.658C283.758 254.507 283.017 255.652 282.613 256.299C282.083 257.148 280.516 258.796 279.815 259.239C279.494 259.444 278.892 259.79 278.476 260.008C277.659 260.439 257.477 266.271 256.804 266.271C256.587 266.271 256.26 266.334 256.075 266.412C255.891 266.49 254.568 266.651 253.137 266.77C251.704 266.889 250.457 267.043 250.364 267.11C250.272 267.179 249.704 267.249 249.101 267.267C245.948 267.362 241.05 268.83 236.699 270.985C235.354 271.651 235.161 271.793 235.121 272.148C235.095 272.371 235.29 273.586 235.553 274.849L236.033 277.143L251.407 294.217C259.862 303.608 266.838 311.438 266.909 311.615C266.979 311.792 267.214 312.204 267.428 312.529C267.697 312.935 268.287 314.754 269.313 318.336C270.134 321.203 270.788 323.572 270.765 323.598C270.742 323.624 261.011 316.358 249.141 307.454C237.27 298.549 227.418 291.189 227.249 291.099C226.775 290.844 226.213 290.89 222.184 291.517C218.423 292.102 218.168 292.157 218.168 292.39C218.168 292.459 219.978 294.102 222.19 296.041C224.402 297.981 226.25 299.67 226.3 299.798C226.427 300.133 225.918 300.499 222.064 302.854C221.487 303.206 221.231 303.45 221.261 303.619C221.286 303.756 222.422 304.851 223.786 306.055L226.267 308.243L268.143 333.967C291.175 348.115 310.276 359.868 310.589 360.083C312.307 361.257 312.392 364.744 310.783 367.921C310.145 369.18 308.863 370.69 308.147 371.027C306.754 371.682 305.674 371.963 304.912 371.87C303.39 371.685 302.607 371.494 302.091 371.184C300.499 370.229 243.73 341.136 243.457 341.136C243.279 341.136 242.808 341.328 242.413 341.561C240.851 342.481 237.374 344.242 234.919 345.355C221.999 351.209 207.549 354.706 191.102 355.956C184.615 356.449 159.826 356.56 154.552 356.119C139.613 354.87 127.389 352.189 115.768 347.609C111.622 345.974 106.166 343.389 103.313 341.707C102.917 341.474 102.513 341.283 102.415 341.283C102.176 341.283 44.5423 370.929 43.9997 371.332C43.5014 371.7 42.4322 371.929 40.8128 372.013C39.7804 372.068 39.5069 372.022 38.4478 371.626L38.448 371.629Z" fill="#415D7A"/>
<path d="M38.5929 371.483C37.5506 371.092 37.2821 370.914 36.5239 370.103C35.531 369.042 34.7987 367.794 34.2989 366.314C33.8343 364.938 33.7933 361.943 34.2281 361.133C34.5687 360.498 35.3188 359.858 36.2812 359.382C36.6865 359.182 55.5998 347.594 78.311 333.631L119.604 308.246L122.084 306.063C123.449 304.862 124.729 303.699 124.93 303.475C125.13 303.253 135.537 294.064 148.057 283.055C160.576 272.046 170.905 262.898 171.008 262.724C171.288 262.256 171.128 261.046 170.667 260.129C170.106 259.014 168.273 257.244 167.09 256.671C165.236 255.777 165.656 255.601 161.029 259.212C158.789 260.959 148.422 268.78 137.988 276.59C127.556 284.401 109.148 298.184 97.0832 307.22C85.0177 316.255 75.1276 323.627 75.1049 323.602C75.0821 323.576 75.7355 321.207 76.557 318.339C77.5827 314.758 78.1731 312.938 78.4418 312.533C78.6569 312.208 78.8906 311.796 78.961 311.619C79.0314 311.441 86.0077 303.612 94.4637 294.22L109.839 277.145L110.394 274.447C112.964 261.96 116.219 246.765 116.399 246.418C116.52 246.184 117.652 244.972 118.914 243.726C120.84 241.822 121.215 241.512 121.244 241.791C121.263 241.973 121.51 247.802 121.793 254.746C122.076 261.689 122.323 267.533 122.342 267.734C122.366 267.985 122.464 268.099 122.658 268.099C122.901 268.099 123.076 267.612 123.942 264.523C126.051 257.001 128.251 248.806 128.348 248.106C128.529 246.805 131.864 232.292 132.017 232.14C132.053 232.104 132.262 232.247 132.482 232.457C132.702 232.667 133.243 233.003 133.684 233.203C137.562 234.964 145.139 233.115 157.542 227.38C161.653 225.477 175.627 218.395 177.969 217.026C201.045 203.53 220.945 186.471 238.262 165.342C253.971 146.171 267.061 123.946 276.626 100.203C282.9 84.6303 287.651 68.0441 290.092 53.1842C291.492 44.6659 292.068 38.6405 292.267 30.4266L292.364 26.4001L297.79 31.2292C300.773 33.8853 303.488 36.3703 303.821 36.7516C304.207 37.1934 304.546 37.4448 304.754 37.4448C304.935 37.4448 305.128 37.4898 305.182 37.5447C305.449 37.8111 306.485 38.0243 307.522 38.0263L308.672 38.0285L310.055 36.6787C312.55 34.2431 316.77 29.1561 321.765 22.5603C323.009 20.9179 324.393 19.2117 324.84 18.7683C325.286 18.325 325.872 17.6505 326.141 17.2692C326.41 16.8879 326.708 16.5759 326.802 16.5759C326.897 16.5759 327.277 17.0308 327.648 17.5866C328.017 18.1426 328.863 19.2489 329.529 20.0452C336.257 28.0972 340.954 38.954 342.629 50.3279C343.183 54.0998 343.28 55.5785 343.279 60.211C343.276 64.9891 343.134 66.8543 342.469 70.7171C341.138 78.4549 338.166 85.4021 334.125 90.2192C332.671 91.9515 330.934 93.4726 328.654 95.0083C328.011 95.4407 327.891 95.8459 328.375 95.9394C328.519 95.967 330.724 95.2288 333.278 94.2992C337.85 92.6345 337.94 92.6092 339.173 92.6092C340.963 92.6092 341.855 92.8259 342.111 93.3237C342.225 93.5423 342.483 94.8008 342.688 96.1204C344.485 107.796 344.028 120.152 341.506 127.99C339.859 133.11 337.318 136.098 334.613 136.098C333.839 136.098 333.709 136.141 333.498 136.462C333.367 136.662 333.293 136.912 333.333 137.016C333.381 137.142 335.354 137.561 339.127 138.249C343.223 138.994 344.926 139.36 345.125 139.54C345.532 139.909 345.482 140.972 344.977 142.642C344.742 143.417 344.049 146.515 343.435 149.525C340.422 164.305 337.87 174.9 335.24 183.527C328.74 204.858 320.31 217.318 307.174 225.008C305.973 225.711 304.07 226.678 303.381 226.935C303.26 226.98 302.734 227.253 302.213 227.543C301.691 227.831 295.323 230.65 288.06 233.806L274.854 239.546L264.295 242.875C258.334 244.755 253.702 246.29 253.66 246.398C253.62 246.505 253.654 246.66 253.738 246.743C253.841 246.847 259.045 246.571 270.5 245.856C279.637 245.285 287.388 244.819 287.726 244.819L288.341 244.821L288.076 245.442C287.931 245.782 287.627 246.586 287.402 247.229C287.177 247.871 286.904 248.526 286.797 248.685C286.689 248.843 286.601 249.066 286.601 249.182C286.601 249.297 286.431 249.614 286.222 249.887C286.013 250.16 285.782 250.609 285.705 250.884C285.629 251.157 285.253 251.859 284.87 252.443C284.486 253.026 283.784 254.119 283.307 254.868C281.508 257.705 280.512 258.706 278.33 259.864C277.503 260.302 257.333 266.128 256.642 266.128C256.417 266.128 256.122 266.186 255.986 266.257C255.851 266.328 254.821 266.46 253.698 266.551C252.574 266.641 250.966 266.809 250.124 266.924C249.28 267.039 247.968 267.209 247.205 267.304C242.387 267.898 235.106 271.054 230.769 274.427C229.359 275.524 228.902 275.976 228.324 276.837C227.797 277.625 227.83 278.108 228.443 278.648C228.977 279.117 229.048 279.134 231.884 279.484C235.285 279.904 236.518 280.3 238.255 281.537C239.382 282.34 239.764 282.931 239.762 283.876C239.76 284.856 239.221 285.947 238.219 286.997C237.454 287.8 235.939 288.914 235.095 289.297C234.893 289.388 233.186 289.694 231.3 289.976C221.254 291.485 218.083 291.99 217.968 292.104C217.896 292.174 217.874 292.323 217.918 292.437C217.961 292.551 219.837 294.248 222.086 296.206C224.335 298.163 226.179 299.834 226.185 299.917C226.189 300 225.98 300.19 225.719 300.34C225.188 300.646 223.33 301.821 221.379 303.085C217.826 305.387 210.258 309.307 204.672 311.739C197.59 314.821 189.635 317.673 183.514 319.322C182.712 319.539 181.992 319.775 181.917 319.846C181.84 319.919 181.578 319.983 181.332 319.99C181.088 319.997 180.364 320.144 179.723 320.318C178.23 320.723 178.117 321.002 179.242 321.498C180.398 322.009 182.943 322.695 185.265 323.119C188.036 323.626 192.717 324.212 193.707 324.178C194.153 324.161 194.564 324.195 194.621 324.253C194.975 324.607 191.812 326.729 188.475 328.376C184.299 330.437 180.612 331.501 176.447 331.846C173.541 332.087 173.533 332.202 176.317 333.545C184.207 337.351 194.083 339.967 204.744 341.077C206.126 341.221 208.905 341.338 211.894 341.378C215.099 341.42 216.8 341.496 216.835 341.594C216.963 341.966 215.764 343.988 214.903 344.847C212.06 347.691 205.792 350.56 198.004 352.579C191.458 354.275 184.347 355.37 175.417 356.055C171.659 356.343 158.784 356.295 154.842 355.978C140.03 354.787 127.587 352.065 115.914 347.466C111.768 345.831 106.312 343.246 103.459 341.564C103.063 341.331 102.593 341.14 102.415 341.14C102.08 341.14 44.611 370.628 43.8541 371.19C43.3778 371.541 42.3262 371.777 40.813 371.869C39.9363 371.922 39.6219 371.868 38.594 371.483H38.5929Z" fill="#15293D"/>
<path d="M536.951 373.019C518.956 373.019 496.13 369.685 468.471 363.02C451.144 367.686 434.981 370.019 419.985 370.019C404.991 370.019 396.326 369.519 393.994 368.52C396.326 348.521 406.157 299.36 423.485 221.035C441.147 142.378 449.977 93.053 449.977 73.0581C449.977 69.0586 447.812 63.7258 443.48 57.0595C439.148 50.3933 434.815 44.7272 430.483 40.0614L423.986 33.0623L425.485 25.5635C469.138 16.5646 516.123 12.0652 566.441 12.0652C594.098 12.0652 616.758 18.7308 634.419 32.062C652.415 45.0601 661.412 63.3909 661.412 87.0546C661.412 132.715 633.586 164.378 577.937 182.042C600.264 184.709 618.925 193.207 633.92 207.539C649.249 221.538 656.913 241.368 656.913 267.031C656.913 298.361 645.583 323.858 622.924 343.521C600.264 363.186 571.606 373.019 536.949 373.019H536.951ZM527.953 195.547C518.623 195.547 510.292 196.381 502.96 198.048C488.631 261.372 479.467 305.534 475.468 330.529C483.799 336.196 496.796 339.029 514.455 339.029C532.451 339.029 547.779 332.03 560.442 318.031C573.104 303.699 579.436 283.202 579.436 256.54C579.436 215.878 562.274 195.549 527.952 195.549L527.953 195.547ZM555.944 43.0657C543.282 43.0657 535.784 44.2323 533.452 46.5654C528.786 76.5615 521.122 115.89 510.458 164.55C523.788 164.55 533.118 163.717 538.449 162.05C543.782 160.384 548.446 158.217 552.445 155.552C556.777 152.885 561.609 148.718 566.94 143.052C578.604 130.721 584.436 111.057 584.436 84.0605C584.436 56.7308 574.939 43.0658 555.944 43.0658V43.0657Z" fill="#15293D"/>
<path d="M721.345 373.018C710.015 373.018 700.518 369.185 692.854 361.52C685.523 353.853 681.858 343.189 681.858 329.525C681.858 315.525 690.022 271.365 706.35 197.042C723.012 122.384 731.343 68.5584 731.343 35.5635L728.343 13.5662C754.336 4.56732 778.662 0.0678711 801.321 0.0678711C804.653 4.73388 806.32 12.8993 806.32 24.5641C806.32 51.2275 797.822 102.886 780.826 179.539C764.166 255.862 755.835 300.355 755.835 313.02C755.835 325.352 757.335 331.517 760.333 331.517L795.323 319.02L804.321 336.517C792.99 345.516 779.162 353.848 762.833 361.515C746.838 369.18 733.01 373.013 721.346 373.013L721.345 373.018Z" fill="#15293D"/>
<path d="M919.109 176.485C919.109 190.484 914.61 214.647 905.612 248.976C896.616 282.971 892.118 305.302 892.118 315.967C892.118 326.299 893.616 331.465 896.616 331.465C898.615 331.465 906.279 328.299 919.608 321.966L925.607 318.966L934.104 336.464C931.105 339.131 927.106 342.463 922.108 346.463C917.109 350.462 907.779 355.962 894.117 362.961C880.453 369.628 867.79 372.96 856.129 372.96C844.466 372.96 835.302 369.46 828.637 362.462C821.972 355.13 818.64 345.463 818.64 333.466C818.64 321.135 822.805 299.471 831.136 268.475C839.467 237.146 843.632 216.816 843.632 207.484C843.632 193.485 839.301 180.32 830.636 167.988L826.138 161.989L826.638 155.49C844.299 150.49 872.957 147.991 912.611 147.991C916.943 152.991 919.11 162.488 919.11 176.486L919.109 176.485ZM862.127 93.4965C855.462 86.8308 852.13 77.9985 852.13 66.9998C852.13 56.001 856.628 46.3358 865.626 38.0041C874.956 29.6719 885.62 25.5059 897.616 25.5059C909.612 25.5059 918.942 28.8387 925.607 35.5045C932.272 42.1703 935.604 51.0025 935.604 62.0013C935.604 72.6669 930.773 82.1657 921.109 90.4971C911.779 98.8294 901.281 102.995 889.619 102.995C877.956 102.995 868.792 99.8292 862.127 93.4967V93.4965Z" fill="#15293D"/>
<path d="M964.717 368.513H955.219C955.219 352.849 959.885 322.853 969.215 278.526C978.878 234.197 983.71 209.034 983.71 203.034C983.71 192.035 979.046 180.37 969.714 168.039L965.216 162.039L965.716 155.541C983.71 150.541 1012.54 148.041 1052.19 148.041C1056.52 153.707 1058.85 164.039 1059.19 179.038C1088.18 156.707 1112.67 145.542 1132.66 145.542C1144.66 145.542 1154.16 149.709 1161.16 158.041C1168.49 166.374 1172.15 176.872 1172.15 189.537C1172.15 201.869 1168.32 223.365 1160.66 254.028C1152.99 284.691 1149.16 305.355 1149.16 316.021C1149.16 326.351 1150.49 331.518 1153.16 331.518C1155.16 331.518 1162.16 328.351 1174.15 322.018L1180.15 319.02L1189.15 336.517C1186.15 339.184 1182.15 342.517 1177.15 346.516C1172.15 350.516 1162.82 356.015 1149.16 363.015C1135.83 369.68 1123.84 373.013 1113.17 373.013C1088.85 373.013 1076.68 359.181 1076.68 331.519C1076.68 319.854 1080.35 298.357 1087.68 267.028C1095.34 235.698 1099.18 215.535 1099.18 206.536C1099.18 197.537 1096.34 193.037 1090.68 193.037C1081.01 193.037 1069.19 197.204 1055.19 205.536C1054.19 211.202 1050.86 226.201 1045.19 250.531C1033.53 302.857 1027.7 339.851 1027.7 361.515C1016.03 366.181 995.039 368.514 964.715 368.514L964.717 368.513Z" fill="#15293D"/>
<path d="M1261.58 37.0118C1261.58 26.0129 1260.58 18.1807 1258.58 13.5151C1284.57 4.51629 1309.06 0.0168457 1332.05 0.0168457C1335.05 3.01646 1336.55 10.6821 1336.55 23.0138C1336.55 50.6766 1327.39 103.667 1309.06 181.986C1338.72 157.656 1368.04 145.491 1397.04 145.491C1410.03 145.491 1421.02 149.491 1430.03 157.49C1439.01 165.488 1443.52 177.153 1443.52 192.485C1443.52 221.147 1420.02 241.977 1373.04 254.978C1384.04 289.639 1393.7 313.136 1402.03 325.468C1405.7 330.8 1408.36 333.466 1410.03 333.466C1413.7 333.466 1421.35 330.634 1433.02 324.967L1438.52 322.467L1446.52 339.466C1438.52 346.797 1427.36 354.297 1413.02 361.962C1399.03 369.295 1386.21 372.961 1374.55 372.961C1348.55 372.961 1330.39 349.298 1320.06 301.97C1315.39 281.638 1312.56 262.642 1311.56 244.978C1332.89 239.979 1348.72 233.98 1359.05 226.98C1369.71 219.648 1375.04 210.483 1375.04 199.484C1375.04 188.152 1369.38 182.487 1358.05 182.487C1346.72 182.487 1327.72 193.818 1301.06 216.481C1284.4 286.804 1276.07 334.967 1276.07 360.967C1257.74 366.299 1233.92 368.966 1204.59 368.966C1204.26 363.299 1204.09 358.3 1204.09 353.967C1204.09 339.636 1213.59 290.643 1232.58 206.99C1251.91 123.335 1261.58 66.6748 1261.58 37.0091L1261.58 37.0118Z" fill="#15293D"/>
<path d="M1469.89 325.969L1475.39 195.486C1475.39 184.153 1469.4 172.488 1457.4 160.49L1458.4 154.491C1460.74 153.824 1462.89 153.324 1464.9 152.991C1467.23 152.323 1469.73 151.658 1472.4 150.991C1475.39 150.325 1478.73 149.658 1482.39 148.991C1486.06 148.324 1489.88 147.658 1493.89 146.991C1503.22 145.992 1511.88 145.491 1519.88 145.491C1528.21 145.491 1535.21 148.825 1540.88 155.491C1546.87 162.156 1549.88 172.822 1549.88 187.487C1549.88 201.818 1547.55 222.483 1542.88 249.478C1538.54 276.142 1536.38 296.139 1536.38 309.471C1536.38 322.469 1539.55 328.967 1545.87 328.967C1556.2 328.967 1567.54 322.469 1579.86 309.471C1580.19 304.138 1582.36 287.141 1586.37 258.478C1590.36 229.814 1592.36 208.984 1592.36 195.985C1592.36 182.988 1591.36 171.822 1589.36 162.491C1615.02 152.824 1638.02 147.992 1658.34 147.992C1662.68 150.992 1664.83 160.823 1664.83 177.488C1664.83 193.819 1662.01 216.649 1656.34 245.978C1650.67 274.975 1647.84 296.139 1647.84 309.471C1647.84 322.469 1650.51 328.967 1655.84 328.967C1668.5 328.967 1682.33 319.636 1697.33 300.971C1712.33 281.975 1720.33 266.143 1721.31 253.479L1687.34 215.484C1688.67 201.153 1692.17 188.154 1697.82 176.489C1703.49 164.823 1708.83 156.658 1713.82 151.993L1720.82 145.493C1735.15 145.493 1745.97 149.326 1753.32 156.991C1760.64 164.657 1764.31 173.656 1764.31 183.988C1764.31 210.318 1757.82 238.148 1744.82 267.477C1731.81 296.806 1714.33 321.802 1692.33 342.466C1670.34 362.797 1648.01 372.963 1625.35 372.963C1614.02 372.963 1604.36 369.796 1596.36 363.464C1588.7 356.797 1583.53 348.299 1580.86 337.967C1557.54 361.297 1534.88 372.963 1512.88 372.963C1498.23 372.963 1487.4 368.462 1480.4 359.464C1473.4 350.131 1469.9 338.967 1469.9 325.969H1469.89Z" fill="#415D7A"/>
<path d="M1873.87 176.485C1873.87 190.484 1869.38 214.647 1860.38 248.976C1851.38 282.971 1846.89 305.302 1846.89 315.967C1846.89 326.299 1848.39 331.465 1851.38 331.465C1853.38 331.465 1861.05 328.299 1874.38 321.966L1880.37 318.966L1888.87 336.464C1885.88 339.131 1881.87 342.463 1876.87 346.463C1871.88 350.462 1862.55 355.962 1848.88 362.961C1835.23 369.628 1822.56 372.96 1810.9 372.96C1799.23 372.96 1790.06 369.46 1783.41 362.462C1776.74 355.13 1773.41 345.463 1773.41 333.466C1773.41 321.135 1777.58 299.471 1785.91 268.475C1794.24 237.146 1798.39 216.816 1798.39 207.484C1798.39 193.485 1794.07 180.32 1785.4 167.988L1780.9 161.989L1781.41 155.49C1799.07 150.49 1827.72 147.991 1867.38 147.991C1871.71 152.991 1873.88 162.488 1873.88 176.486L1873.87 176.485ZM1816.89 93.4965C1810.22 86.8308 1806.9 77.9985 1806.9 66.9998C1806.9 56.001 1811.39 46.3358 1820.39 38.0041C1829.72 29.6719 1840.39 25.5059 1852.38 25.5059C1864.37 25.5059 1873.7 28.8387 1880.37 35.5045C1887.04 42.1703 1890.38 51.0025 1890.38 62.0013C1890.38 72.6669 1885.53 82.1657 1875.87 90.4971C1866.54 98.8294 1856.04 102.995 1844.38 102.995C1832.73 102.995 1823.56 99.8292 1816.89 93.4967V93.4965Z" fill="#415D7A"/>
<path d="M1919.62 368.513H1910.12C1910.12 352.849 1914.79 322.853 1924.12 278.524C1933.78 234.197 1938.61 209.034 1938.61 203.034C1938.61 192.035 1933.95 180.37 1924.61 168.039L1920.13 162.039L1920.62 155.541C1938.61 150.541 1967.44 148.041 2007.09 148.041C2011.42 153.707 2013.76 164.039 2014.09 179.038C2043.08 156.707 2067.58 145.542 2087.57 145.542C2099.56 145.542 2109.06 149.709 2116.06 158.04C2123.39 166.372 2127.06 176.872 2127.06 189.536C2127.06 201.868 2123.22 223.365 2115.56 254.028C2107.89 284.691 2104.06 305.354 2104.06 316.021C2104.06 326.351 2105.39 331.518 2108.06 331.518C2110.06 331.518 2117.06 328.351 2129.05 322.018L2135.05 319.02L2144.05 336.517C2141.05 339.183 2137.05 342.517 2132.06 346.516C2127.06 350.516 2117.73 356.015 2104.06 363.013C2090.74 369.68 2078.75 373.013 2068.07 373.013C2043.75 373.013 2031.58 359.181 2031.58 331.519C2031.58 319.853 2035.25 298.357 2042.59 267.027C2050.24 235.698 2054.07 215.535 2054.07 206.536C2054.07 197.536 2051.25 193.037 2045.58 193.037C2035.92 193.037 2024.09 197.203 2010.09 205.535C2009.09 211.202 2005.76 226.199 2000.1 250.529C1988.44 302.856 1982.61 339.851 1982.61 361.515C1970.94 366.181 1949.95 368.513 1919.62 368.513Z" fill="#415D7A"/>
<path d="M2222.87 421.025C2211.87 427.691 2206.38 434.19 2206.38 440.522C2206.38 446.855 2209.88 450.021 2216.88 450.021C2224.2 450.021 2232.37 446.521 2241.37 439.522C2250.36 432.857 2257.87 421.858 2263.86 406.527C2247.86 409.526 2234.19 414.358 2222.87 421.025ZM2371.32 149.061C2372.67 150.394 2373.33 153.393 2373.33 158.059C2373.33 162.392 2373 167.225 2372.33 172.557C2371.67 177.557 2370.5 189.055 2368.83 207.053C2367.17 225.05 2365.49 240.715 2363.83 254.047C2346.84 404.028 2301.19 479.018 2226.87 479.018C2214.87 479.018 2203.88 475.852 2193.88 469.519C2184.22 463.186 2179.39 455.021 2179.39 445.023C2179.39 431.692 2187.55 419.526 2203.88 408.528C2220.21 397.529 2242.2 389.03 2269.86 383.031C2269.86 382.699 2270.86 378.033 2272.87 369.033C2274.85 360.035 2276.19 352.702 2276.86 347.036C2256.86 361.701 2238.04 369.033 2220.38 369.033C2203.04 369.033 2188.72 362.201 2177.38 348.535C2166.39 334.87 2160.89 313.041 2160.89 283.045C2160.89 243.716 2169.73 211.054 2187.39 185.059C2205.05 158.729 2228.38 145.562 2257.36 145.562C2273.69 145.562 2289.85 149.562 2305.85 157.561C2322.84 151.562 2341.18 148.563 2360.83 148.563L2371.32 149.061ZM2279.86 175.057C2265.52 175.057 2254.2 186.722 2245.87 210.053C2237.54 233.051 2233.37 258.714 2233.37 287.043C2233.37 315.039 2239.7 329.037 2252.36 329.037C2260.69 329.037 2270.53 325.871 2281.85 319.538C2291.18 263.546 2297.85 217.386 2301.85 181.058C2292.52 177.058 2285.19 175.059 2279.86 175.059V175.057Z" fill="#415D7A"/>
</svg>
