<?xml version="1.0" encoding="UTF-8" standalone="no"?>
<svg
   xmlns:dc="http://purl.org/dc/elements/1.1/"
   xmlns:cc="http://creativecommons.org/ns#"
   xmlns:rdf="http://www.w3.org/1999/02/22-rdf-syntax-ns#"
   xmlns:svg="http://www.w3.org/2000/svg"
   xmlns="http://www.w3.org/2000/svg"
   id="svg8"
   version="1.1"
   viewBox="0 0 181.1205 206.56398"
   height="206.56398mm"
   width="181.1205mm">
  <defs
     id="defs2" />
  <metadata
     id="metadata5">
    <rdf:RDF>
      <cc:Work
         rdf:about="">
        <dc:format>image/svg+xml</dc:format>
        <dc:type
           rdf:resource="http://purl.org/dc/dcmitype/StillImage" />
        <dc:title></dc:title>
      </cc:Work>
    </rdf:RDF>
  </metadata>
  <g
     transform="translate(-9.8395081,-34.197936)"
     id="layer1">
    <path
       id="path21"
       d="m 12.677093,240.52674 c -0.610814,-0.22875 -0.759195,-0.32887 -1.23535,-0.83362 -0.63217,-0.67014 -1.000479,-1.27906 -1.293895,-2.13919 -0.3936662,-1.15401 -0.4128612,-2.6396 -0.0433,-3.35083 0.190375,-0.36638 0.629353,-0.73518 1.232908,-1.03584 0.233839,-0.11649 11.207462,-6.83981 24.385828,-14.94071 l 23.960672,-14.72892 14.520333,-12.78021 c 7.986183,-7.02912 14.706236,-12.96844 14.933447,-13.1985 0.409584,-0.41471 0.412717,-0.42209 0.367149,-0.86362 -0.06594,-0.63889 -0.422749,-1.27482 -1.076113,-1.9179 -0.585521,-0.57632 -1.374056,-1.03499 -1.952236,-1.13558 -0.253102,-0.044 -0.353703,-0.0103 -0.635,0.21324 -2.088887,1.65969 -7.542945,5.77313 -27.893247,21.03704 -13.108517,9.83215 -23.873587,17.90082 -23.922377,17.93038 -0.04879,0.0296 -0.142782,0.0203 -0.208871,-0.0205 -0.176524,-0.10911 1.502268,-6.01805 1.900098,-6.6879 0.152111,-0.25612 0.298094,-0.52282 0.324406,-0.59267 0.02631,-0.0699 4.062001,-4.5847 8.968199,-10.033 l 8.920358,-9.906 1.801614,-8.59366 c 0.990896,-4.72652 1.861904,-8.76048 1.935581,-8.96436 0.104437,-0.28899 0.45245,-0.68548 1.579254,-1.79916 0.79491,-0.78567 1.494747,-1.42848 1.555182,-1.42848 0.07469,0 0.109813,0.12883 0.109644,0.40216 -8.47e-4,0.81017 0.601895,14.70571 0.639132,14.74295 0.02115,0.0211 0.05968,0.0172 0.08564,-0.009 0.129117,-0.12912 2.887396,-10.26623 3.055247,-11.22852 0.158319,-0.90768 1.914856,-8.60619 2.113492,-9.26301 0.06306,-0.2085 0.192219,-0.18437 0.395334,0.0739 0.243578,0.30965 1.065412,0.6777 1.784147,0.799 2.229451,0.37627 6.294306,-0.74184 11.855408,-3.26103 3.291128,-1.49067 10.521094,-5.15043 12.710845,-6.43392 13.450458,-7.8838 24.879418,-17.6762 34.900478,-29.90294 9.11513,-11.12141 16.71098,-24.015853 22.26111,-37.789673 3.64052,-9.0347 6.39698,-18.65744 7.81386,-27.27794 0.81484,-4.95755 1.14887,-8.45082 1.24761,-13.04714 0.0463,-2.15426 0.0765,-2.6035 0.175,-2.6035 0.13534,0 6.54061,5.69287 6.91045,6.14187 0.14386,0.17467 0.31751,0.2928 0.43038,0.2928 0.10408,0 0.21534,0.0261 0.24725,0.058 0.14754,0.14754 0.74261,0.2782 1.27227,0.27936 l 0.58239,10e-4 0.76063,-0.74083 c 1.40178,-1.3653 3.89987,-4.38044 6.7529,-8.15063 0.72179,-0.95381 1.52189,-1.94375 1.778,-2.19987 0.25612,-0.25612 0.64882,-0.70665 0.87268,-1.00118 0.47755,-0.62834 0.45677,-0.63416 1.09073,0.30533 0.23063,0.34179 0.73094,0.99425 1.1118,1.44992 3.89431,4.65933 6.62105,10.96568 7.59147,17.55741 0.32465,2.20526 0.37899,3.0419 0.3779,5.81852 -0.001,2.86339 -0.0814,3.91814 -0.47038,6.17982 -0.77255,4.49199 -2.49661,8.51945 -4.84528,11.31869 -0.82826,0.98717 -2.22225,2.21855 -3.15884,2.79039 -0.0864,0.0528 -0.13175,0.12252 -0.1008,0.15506 0.0309,0.0325 1.2311,-0.3688 2.667,-0.89185 l 2.61072,-0.95099 0.76173,0.0111 c 0.41893,0.006 0.96438,0.0532 1.21209,0.1046 0.6101,0.12666 0.71272,0.31733 0.94085,1.74818 1.09158,6.8463 0.83622,14.33691 -0.64574,18.94204 -0.96207,2.989593 -2.49862,4.788953 -4.0895,4.788953 -0.38433,0 -0.52566,0.0328 -0.56321,0.13065 -0.0276,0.0719 -0.0347,0.14609 -0.0158,0.16495 0.0189,0.0189 1.49521,0.30084 3.28077,0.6266 3.76087,0.68613 3.64851,0.64083 3.64851,1.47115 0,0.31074 -0.094,0.81185 -0.24725,1.31875 -0.13598,0.44966 -0.5385,2.24631 -0.89448,3.99256 -2.47829,12.15721 -4.45823,19.63296 -6.77199,25.56934 -3.43036,8.80119 -7.94817,14.56339 -14.35361,18.30712 -1.53108,0.89486 -4.13856,2.0942 -11.43,5.25734 l -7.32367,3.17712 -5.91623,1.86582 c -3.25392,1.02621 -5.9368,1.8864 -5.96193,1.91154 -0.0252,0.0251 -0.0296,0.0618 -0.01,0.0815 0.0197,0.0197 4.45514,-0.24208 9.85661,-0.58167 5.70343,-0.35857 9.85498,-0.58614 9.90226,-0.54279 0.0515,0.0472 0.0252,0.22215 -0.0716,0.47585 -0.0842,0.22066 -0.26319,0.70599 -0.39789,1.07853 -0.13468,0.37253 -0.3025,0.77846 -0.37291,0.90206 -0.0704,0.1236 -0.12803,0.27241 -0.12803,0.33067 0,0.0583 -0.099,0.2357 -0.21992,0.39428 -0.12095,0.15858 -0.25585,0.41847 -0.29977,0.57754 -0.0439,0.15907 -0.26198,0.56632 -0.48459,0.905 -0.2226,0.33868 -0.63063,0.97133 -0.90673,1.40588 -1.06129,1.67043 -1.70869,2.32074 -2.97166,2.98511 -0.47501,0.24986 -12.18657,3.63312 -12.57651,3.63312 -0.1255,0 -0.3157,0.0369 -0.42266,0.0821 -0.10697,0.0452 -0.87435,0.13872 -1.70529,0.20792 -0.83094,0.0692 -1.55484,0.15814 -1.60867,0.19764 -0.0538,0.0395 -0.38361,0.0804 -0.73286,0.0908 -1.91282,0.0572 -4.63214,0.88776 -7.366,2.24985 -2.84981,1.41986 -4.80605,2.99494 -4.72438,3.80385 0.0444,0.43983 0.30866,0.54778 1.80338,0.73664 2.31133,0.29204 2.9497,0.48991 4.00582,1.24159 1.04403,0.74309 1.27302,1.409 0.81951,2.38318 -0.35836,0.76979 -1.71786,2.01828 -2.66633,2.44862 -0.11642,0.0528 -2.32073,0.4182 -4.89848,0.81197 -2.57774,0.39376 -4.72246,0.75157 -4.76602,0.79514 -0.0492,0.0492 0.81317,0.85959 2.27381,2.13693 1.57972,1.38147 2.36154,2.12028 2.37894,2.24806 0.021,0.15427 -0.0753,0.25094 -0.508,0.51011 -0.29365,0.17587 -0.74347,0.46044 -0.99958,0.63236 -0.25612,0.17192 -1.07527,0.67483 -1.82034,1.11758 -6.35078,3.77386 -14.14671,7.09373 -21.420664,9.12193 -0.512234,0.14282 -0.944034,0.29704 -0.959553,0.3427 -0.01553,0.0457 -0.167928,0.0839 -0.338667,0.085 -0.412293,0.003 -1.476358,0.27846 -1.514424,0.39266 -0.06341,0.19023 1.841898,0.75738 3.65931,1.08926 1.791513,0.32715 4.376168,0.64041 4.491848,0.54441 0.0939,-0.0779 0.8774,0.0217 1.06036,0.13479 0.42644,0.26355 -1.29861,1.53044 -3.689541,2.70963 -2.361446,1.16465 -4.497138,1.79281 -6.7945,1.99841 -0.617008,0.0552 -1.121833,0.13462 -1.121833,0.17646 0,0.10858 1.852345,0.97992 3.344333,1.57318 4.041479,1.60699 8.934511,2.75284 14.012331,3.28139 0.8094,0.0842 2.39934,0.15034 4.14867,0.17246 1.55998,0.0197 2.88396,0.053 2.94217,0.074 0.17665,0.0636 0.12094,0.32914 -0.20633,0.98331 -1.71496,3.42799 -10.32912,6.50205 -21.193174,7.56301 -3.077871,0.30057 -4.159885,0.34387 -8.509,0.34047 -4.597375,-0.004 -6.089473,-0.0765 -9.567334,-0.46718 -8.238176,-0.92549 -15.502797,-2.8446 -22.123103,-5.8443 -1.42483,-0.64559 -3.442691,-1.66695 -4.348396,-2.20098 -0.229692,-0.13543 -0.464362,-0.24623 -0.521487,-0.24623 -0.138151,0 -33.579942,17.19984 -33.895726,17.43331 -0.289134,0.21377 -0.909558,0.34641 -1.849288,0.39538 -0.598877,0.0312 -0.757743,0.005 -1.371529,-0.22467 z"
       style="fill:#dfdfdf;stroke-width:0.08466667;fill-opacity:0.97153026" />
  </g>
</svg>
