<?xml version="1.0" encoding="UTF-8" standalone="no"?>
<!-- Created with Inkscape (http://www.inkscape.org/) -->

<svg
   xmlns:dc="http://purl.org/dc/elements/1.1/"
   xmlns:cc="http://creativecommons.org/ns#"
   xmlns:rdf="http://www.w3.org/1999/02/22-rdf-syntax-ns#"
   xmlns:svg="http://www.w3.org/2000/svg"
   xmlns="http://www.w3.org/2000/svg"
   xmlns:sodipodi="http://sodipodi.sourceforge.net/DTD/sodipodi-0.dtd"
   xmlns:inkscape="http://www.inkscape.org/namespaces/inkscape"
   width="181.08829mm"
   height="206.57825mm"
   viewBox="0 0 181.08829 206.57825"
   version="1.1"
   id="svg8"
   sodipodi:docname="left-feather-bullet.svg"
   inkscape:version="0.92.4 (5da689c313, 2019-01-14)">
  <defs
     id="defs2" />
  <sodipodi:namedview
     id="base"
     pagecolor="#ffffff"
     bordercolor="#666666"
     borderopacity="1.0"
     inkscape:pageopacity="0.0"
     inkscape:pageshadow="2"
     inkscape:zoom="0.35"
     inkscape:cx="432.03363"
     inkscape:cy="321.97011"
     inkscape:document-units="mm"
     inkscape:current-layer="layer1"
     showgrid="false"
     fit-margin-top="0"
     fit-margin-left="0"
     fit-margin-right="0"
     fit-margin-bottom="0"
     inkscape:window-width="1010"
     inkscape:window-height="1008"
     inkscape:window-x="55"
     inkscape:window-y="0"
     inkscape:window-maximized="0" />
  <metadata
     id="metadata5">
    <rdf:RDF>
      <cc:Work
         rdf:about="">
        <dc:format>image/svg+xml</dc:format>
        <dc:type
           rdf:resource="http://purl.org/dc/dcmitype/StillImage" />
        <dc:title></dc:title>
      </cc:Work>
    </rdf:RDF>
  </metadata>
  <g
     inkscape:label="Layer 1"
     inkscape:groupmode="layer"
     id="layer1"
     transform="translate(-19.252879,-27.443013)">
    <path
       style="fill:#99b4cf;stroke-width:0.08466667;fill-opacity:1"
       d="m 195.57158,233.94752 c -0.0931,-0.04 -0.2867,-0.0755 -0.43015,-0.0787 -0.14345,-0.003 -0.4292,-0.0948 -0.635,-0.20346 -2.67897,-1.4141 -34.01139,-17.49783 -34.0872,-17.49783 -0.0571,0 -0.2918,0.11081 -0.52149,0.24624 -0.9057,0.53403 -2.92356,1.55539 -4.34839,2.20098 -6.62031,2.99969 -13.88493,4.91881 -22.12311,5.8443 -3.47786,0.39071 -4.96996,0.46358 -9.56733,0.46717 -4.34911,0.003 -5.43113,-0.0399 -8.509,-0.34047 -10.86405,-1.06095 -19.478228,-4.13501 -21.193188,-7.56301 -0.32727,-0.65417 -0.38298,-0.91968 -0.20632,-0.98331 0.0582,-0.021 1.38218,-0.0543 2.94217,-0.074 1.749333,-0.0221 3.339278,-0.0882 4.148668,-0.17246 5.07783,-0.52855 9.97086,-1.6744 14.01234,-3.2814 1.49198,-0.59325 3.34433,-1.46459 3.34433,-1.57317 0,-0.0418 -0.50482,-0.12125 -1.12183,-0.17646 -1.48269,-0.13269 -2.5456,-0.35858 -4.08517,-0.86817 -2.96105,-0.98009 -7.053,-3.43561 -6.39888,-3.83987 0.18297,-0.11309 0.96651,-0.21269 1.06037,-0.13479 0.11568,0.096 2.70033,-0.21726 4.49184,-0.54441 1.81742,-0.33189 3.72272,-0.89903 3.65931,-1.08926 -0.0381,-0.1142 -1.10213,-0.39009 -1.51442,-0.39266 -0.17074,-10e-4 -0.32314,-0.0393 -0.33867,-0.0849 -0.0155,-0.0457 -0.44732,-0.19988 -0.95955,-0.34271 -7.27395,-2.0282 -15.069898,-5.34807 -21.420678,-9.12192 -0.74506,-0.44275 -1.56421,-0.94566 -1.82033,-1.11759 -0.25612,-0.17192 -0.70593,-0.45649 -0.99958,-0.63236 -0.43275,-0.25917 -0.52902,-0.35583 -0.508,-0.5101 0.0174,-0.12778 0.79922,-0.86659 2.37894,-2.24806 1.46064,-1.27735 2.32298,-2.08777 2.2738,-2.13694 -0.0436,-0.0436 -2.18827,-0.40138 -4.76602,-0.79514 -2.57774,-0.39377 -4.78206,-0.75915 -4.89847,-0.81197 -0.94847,-0.43033 -2.30797,-1.67883 -2.66633,-2.44862 -0.45351,-0.97417 -0.22452,-1.64009 0.81951,-2.38318 1.05612,-0.75168 1.69448,-0.94954 4.00582,-1.24159 1.49472,-0.18885 1.75897,-0.2968 1.80338,-0.73664 0.0817,-0.80891 -1.87458,-2.38399 -4.72438,-3.80384 -2.73386,-1.36209 -5.45319,-2.19267 -7.366,-2.24986 -0.34925,-0.0104 -0.67904,-0.0513 -0.73287,-0.0908 -0.0538,-0.0395 -0.77772,-0.12844 -1.60866,-0.19763 -0.83094,-0.0692 -1.59832,-0.16277 -1.70529,-0.20792 -0.10697,-0.0451 -0.29717,-0.0821 -0.42267,-0.0821 -0.38994,0 -12.1015,-3.38326 -12.5765,-3.63312 -1.26298,-0.66437 -1.91037,-1.31468 -2.971672,-2.98511 -0.276095,-0.43455 -0.684121,-1.0672 -0.906724,-1.40588 -0.222603,-0.33868 -0.440668,-0.74593 -0.48459,-0.905 -0.04392,-0.15907 -0.178819,-0.41896 -0.299775,-0.57754 -0.120955,-0.15858 -0.219919,-0.33601 -0.219919,-0.39428 0,-0.0583 -0.05761,-0.20707 -0.128023,-0.33067 -0.07041,-0.12361 -0.238226,-0.52953 -0.372917,-0.90207 -0.134691,-0.37253 -0.313738,-0.85787 -0.39788,-1.07852 -0.09674,-0.2537 -0.123057,-0.42865 -0.07158,-0.47586 0.04727,-0.0434 4.19882,0.18422 9.90225,0.54279 5.40147,0.33959 9.83695,0.60135 9.85661,0.58168 0.0197,-0.0197 0.0152,-0.0563 -0.01,-0.0815 -0.0251,-0.0251 -2.70802,-0.88533 -5.96194,-1.91154 l -5.91623,-1.86582 -7.323661,-3.17713 c -7.291438,-3.16313 -9.898918,-4.36247 -11.43,-5.25733 -6.405398,-3.74377 -10.923219,-9.50597 -14.353572,-18.30716 -2.313761,-5.93638 -4.293703,-13.41213 -6.771992,-25.56934 -0.355979,-1.74625 -0.758497,-3.5429 -0.894483,-3.99256 -0.153295,-0.5069 -0.247248,-1.008006 -0.247248,-1.318746 0,-0.83032 -0.112362,-0.78502 3.648506,-1.47115 1.785557,-0.32576 3.261906,-0.60773 3.280774,-0.6266 0.01887,-0.0189 0.01175,-0.0931 -0.01583,-0.16495 -0.03756,-0.0979 -0.178875,-0.13065 -0.563207,-0.13065 -1.256229,0 -2.59572,-1.23896 -3.511057,-3.24753 -1.951886,-4.28313 -2.457717,-12.74684 -1.224187,-20.48347 0.228135,-1.43085 0.330751,-1.62152 0.940847,-1.74817 0.247712,-0.0514 0.793157,-0.0985 1.212102,-0.10461 l 0.761718,-0.0111 2.610725,0.95099 c 1.435899,0.52305 2.636049,0.92438 2.667,0.89185 0.03095,-0.0325 -0.01441,-0.10231 -0.100801,-0.15505 -0.936593,-0.57184 -2.330574,-1.80323 -3.158842,-2.79039 -2.348669,-2.79925 -4.072734,-6.82671 -4.845282,-11.31869 -0.388972,-2.26169 -0.469254,-3.31644 -0.470375,-6.17983 -0.0011,-2.77661 0.05325,-3.61325 0.377905,-5.81852 0.970418,-6.59173 3.697154,-12.89807 7.591467,-17.5574 0.380855,-0.45567 0.881164,-1.10813 1.111798,-1.44992 0.633961,-0.93949 0.613174,-0.93367 1.09073,-0.30533 0.223855,0.29453 0.616559,0.74506 0.872675,1.00118 0.256117,0.25612 1.056217,1.24605 1.778,2.19986 2.853037,3.77019 5.351125,6.78534 6.752901,8.15063 l 0.760628,0.74084 0.582402,-10e-4 c 0.529653,-0.001 1.124727,-0.13183 1.272267,-0.27937 0.03191,-0.0319 0.143172,-0.058 0.247241,-0.058 0.112875,0 0.286521,-0.11813 0.430389,-0.29279 0.369839,-0.449 6.7751,-6.14187 6.910448,-6.14187 0.09853,0 0.128725,0.44924 0.175002,2.6035 0.212474,9.89108 2.158054,20.29203 5.950962,31.8135 3.27823,9.95802 7.93639,20.12452 13.39319,29.23075 11.38129,18.992966 26.42777,34.451876 44.084908,45.293306 3.38825,2.08036 7.08341,4.06369 12.30167,6.6027 8.7345,4.24989 13.68365,5.60702 16.16613,4.433 0.27608,-0.13056 0.58055,-0.3373 0.6766,-0.45941 0.20312,-0.25822 0.33228,-0.28235 0.39534,-0.0739 0.19863,0.65682 1.95517,8.35533 2.11349,9.26301 0.16785,0.96229 2.92613,11.0994 3.05525,11.22852 0.026,0.026 0.0645,0.0299 0.0856,0.009 0.0372,-0.0372 0.63964,-13.93278 0.63913,-14.74295 0,-0.27333 0.035,-0.40217 0.10964,-0.40217 0.0604,0 0.76028,0.64282 1.55519,1.42848 1.1268,1.11369 1.47481,1.51018 1.57925,1.79917 0.0737,0.20388 0.94468,4.23784 1.93558,8.96435 l 1.80161,8.59367 8.92037,9.906 c 4.90619,5.4483 8.94188,9.96315 8.96819,10.033 0.0263,0.0698 0.17229,0.33655 0.3244,0.59267 0.39784,0.66985 2.07663,6.57879 1.9001,6.68789 -0.0661,0.0408 -0.16008,0.0501 -0.20887,0.0205 -0.0488,-0.0296 -10.81386,-8.09822 -23.92237,-17.93037 -20.35031,-15.26391 -25.80436,-19.37736 -27.89325,-21.03705 -0.2813,-0.22349 -0.3819,-0.25727 -0.635,-0.21324 -0.57818,0.1006 -1.36671,0.55927 -1.95224,1.13559 -0.65336,0.64307 -1.01017,1.27901 -1.07611,1.9179 -0.0456,0.44153 -0.0424,0.44891 0.36715,0.86362 0.22721,0.23005 6.94726,6.16939 14.93345,13.19851 l 14.52033,12.78023 24.17233,14.84463 c 13.29479,8.16454 24.38056,14.9831 24.63505,15.15236 0.25449,0.16925 0.54755,0.43391 0.65125,0.58812 0.57417,0.8539 0.43404,2.774 -0.31016,4.24984 -0.30695,0.6087 -0.95916,1.47187 -1.32027,1.74731 -0.65739,0.50142 -2.243,0.85593 -2.78553,0.6228 z"
       id="path21"
       inkscape:connector-curvature="0" />
  </g>
</svg>
